<svg xmlns="http://www.w3.org/2000/svg" viewBox="0 0 32 32" width="32" height="32" shape-rendering="crispEdges">
  <rect width="32" height="32" fill="#16161A"/>
  <rect x="2" y="2" width="28" height="28" fill="#0E7F80"/>
  <!-- pixel "R": ink shadow, then marigold face -->
  <path fill="#16161A" d="M10 7h12v3h-12zM10 10h3v15h-3zM22 10h3v6h-3zM13 16h9v3h-9zM16 19h3v3h-3zM19 22h3v3h-3zM22 25h3v3h-3z"/>
  <path fill="#F2B31B" d="M8 5h12v3h-12zM8 8h3v15h-3zM20 8h3v6h-3zM11 14h9v3h-9zM14 17h3v3h-3zM17 20h3v3h-3zM20 23h3v3h-3z"/>
</svg>
